<svg data-v-423bf9ae="" xmlns="http://www.w3.org/2000/svg" viewBox="0 0 160.64668744092182 60" class="font"><!----><!----><defs data-v-423bf9ae=""><linearGradient data-v-423bf9ae="" gradientTransform="rotate(25)" id="142e168a-337d-4390-9794-885cbfb356e7" x1="0%" y1="0%" x2="100%" y2="0%"><stop data-v-423bf9ae="" offset="0%" style="stop-color: rgb(8, 199, 214); stop-opacity: 1;"></stop><stop data-v-423bf9ae="" offset="100%" style="stop-color: rgb(2, 2, 62); stop-opacity: 1;"></stop></linearGradient></defs><g data-v-423bf9ae="" id="683dd32d-f148-458b-a7c1-ba46ac60a30e" fill="url(#142e168a-337d-4390-9794-885cbfb356e7)" transform="matrix(4.731861084854148,0,0,4.731861084854148,-1.9873803303495805,-20.015772002348974)"><path d="M2.63 6.65C2.03 6.65 1.50 6.85 1.09 7.20C0.66 7.57 0.42 8.12 0.42 8.74C0.42 9.04 0.67 9.30 0.98 9.30C1.29 9.30 1.54 9.04 1.54 8.74C1.54 8.44 1.64 8.20 1.83 8.04C2.03 7.87 2.31 7.77 2.63 7.77C2.91 7.77 3.18 7.90 3.37 8.11C3.58 8.34 3.71 8.64 3.71 8.96L3.71 9.87C3.39 9.67 3.02 9.56 2.63 9.56C1.71 9.56 0.92 10.15 0.59 10.99C0.71 10.92 0.84 10.89 0.98 10.89C1.29 10.89 1.54 11.05 1.68 11.30C1.74 11.20 1.79 11.10 1.88 11.02C2.07 10.81 2.35 10.68 2.63 10.68C2.91 10.68 3.18 10.81 3.37 11.02C3.46 11.10 3.51 11.20 3.57 11.30C3.61 11.23 3.65 11.17 3.71 11.12C3.85 10.98 4.05 10.89 4.27 10.89C4.41 10.89 4.55 10.92 4.66 10.99C4.72 11.02 4.77 11.06 4.83 11.12L4.83 8.96C4.83 7.69 3.84 6.65 2.63 6.65ZM4.27 11.13C3.96 11.13 3.71 11.38 3.71 11.69C3.71 12.01 3.58 12.32 3.37 12.54C3.16 12.77 2.90 12.88 2.62 12.88C2.34 12.88 2.07 12.77 1.88 12.54C1.65 12.32 1.54 12.01 1.54 11.69C1.54 11.38 1.29 11.13 0.98 11.13C0.67 11.13 0.42 11.38 0.42 11.69C0.42 12.96 1.41 14 2.62 14C3.84 14 4.83 12.96 4.83 11.69C4.83 11.38 4.58 11.13 4.27 11.13ZM13.37 13.44C13.37 13.75 13.12 14 12.81 14C12.49 14 12.25 13.75 12.25 13.44L12.25 8.96C12.25 8.64 12.12 8.33 11.91 8.11C11.70 7.88 11.44 7.77 11.16 7.77C10.88 7.77 10.61 7.88 10.42 8.11C10.35 8.18 10.29 8.25 10.23 8.33C10.14 7.92 9.94 7.56 9.67 7.25C10.07 6.87 10.58 6.65 11.16 6.65C12.38 6.65 13.37 7.69 13.37 8.96ZM10.08 8.97L10.08 9.03C10.05 9.31 9.81 9.53 9.52 9.53C9.23 9.53 8.99 9.31 8.96 9.03L8.96 8.97C8.96 8.32 8.47 7.78 7.88 7.78C7.28 7.78 6.79 8.32 6.79 8.97L6.79 9.03C6.76 9.31 6.52 9.53 6.23 9.53C5.94 9.53 5.70 9.31 5.67 9.03L5.67 8.97C5.67 7.70 6.66 6.66 7.88 6.66C8.53 6.66 9.11 6.96 9.52 7.42C9.86 7.83 10.07 8.33 10.08 8.90ZM6.23 9.77C6.45 9.77 6.65 9.69 6.79 9.55L6.79 13.44C6.79 13.75 6.54 14 6.23 14C5.92 14 5.67 13.75 5.67 13.44L5.67 9.55C5.82 9.69 6.02 9.77 6.23 9.77ZM10.08 13.44C10.08 13.75 9.83 14 9.52 14C9.21 14 8.96 13.75 8.96 13.44L8.96 9.55C9.10 9.69 9.30 9.77 9.52 9.77C9.73 9.77 9.94 9.69 10.08 9.55ZM15.33 6.72C14.84 6.97 14.45 7.39 14.21 7.91L14.21 4.79C14.21 4.48 14.46 4.23 14.77 4.23C15.08 4.23 15.33 4.48 15.33 4.79ZM14.21 9.00C14.21 8.76 14.25 8.53 14.31 8.32C14.59 7.38 15.43 6.71 16.39 6.69L16.41 6.69C17.63 6.69 18.62 7.73 18.62 9.00C18.62 9.10 18.59 9.18 18.56 9.25C18.47 9.44 18.27 9.56 18.06 9.56C17.84 9.56 17.64 9.44 17.56 9.25C17.51 9.18 17.50 9.10 17.50 9.00C17.50 8.68 17.37 8.39 17.16 8.15C16.95 7.94 16.69 7.81 16.41 7.81C16.13 7.81 15.86 7.94 15.67 8.15C15.44 8.39 15.33 8.68 15.33 9.00C15.33 9.10 15.32 9.18 15.27 9.25C15.18 9.44 14.99 9.56 14.77 9.56C14.55 9.56 14.36 9.44 14.27 9.25C14.24 9.18 14.21 9.10 14.21 9.00ZM18.62 11.69C18.62 12.96 17.63 14 16.41 14C15.20 14 14.21 12.96 14.21 11.69L14.21 9.58C14.35 9.72 14.55 9.81 14.77 9.81C14.99 9.81 15.19 9.72 15.33 9.58L15.33 11.69C15.33 12.01 15.44 12.32 15.67 12.54C15.86 12.75 16.13 12.88 16.41 12.88C16.69 12.88 16.95 12.75 17.16 12.54C17.37 12.32 17.50 12.01 17.50 11.69L17.50 9.58C17.64 9.72 17.84 9.81 18.06 9.81C18.27 9.81 18.47 9.72 18.62 9.58ZM21.67 6.65C21.07 6.65 20.54 6.85 20.13 7.20C19.70 7.57 19.46 8.12 19.46 8.74C19.46 9.04 19.71 9.30 20.02 9.30C20.33 9.30 20.58 9.04 20.58 8.74C20.58 8.44 20.68 8.20 20.87 8.04C21.07 7.87 21.35 7.77 21.67 7.77C21.95 7.77 22.22 7.90 22.41 8.11C22.62 8.34 22.75 8.64 22.75 8.96L22.75 9.87C22.43 9.67 22.06 9.56 21.67 9.56C20.75 9.56 19.96 10.15 19.63 10.99C19.75 10.92 19.88 10.89 20.02 10.89C20.33 10.89 20.58 11.05 20.72 11.30C20.78 11.20 20.83 11.10 20.92 11.02C21.11 10.81 21.39 10.68 21.67 10.68C21.95 10.68 22.22 10.81 22.41 11.02C22.50 11.10 22.55 11.20 22.61 11.30C22.65 11.23 22.69 11.17 22.75 11.12C22.89 10.98 23.09 10.89 23.31 10.89C23.45 10.89 23.59 10.92 23.70 10.99C23.76 11.02 23.81 11.06 23.87 11.12L23.87 8.96C23.87 7.69 22.88 6.65 21.67 6.65ZM23.31 11.13C23.00 11.13 22.75 11.38 22.75 11.69C22.75 12.01 22.62 12.32 22.41 12.54C22.20 12.77 21.94 12.88 21.66 12.88C21.38 12.88 21.11 12.77 20.92 12.54C20.69 12.32 20.58 12.01 20.58 11.69C20.58 11.38 20.33 11.13 20.02 11.13C19.71 11.13 19.46 11.38 19.46 11.69C19.46 12.96 20.45 14 21.66 14C22.88 14 23.87 12.96 23.87 11.69C23.87 11.38 23.62 11.13 23.31 11.13ZM25.83 11.12C25.69 10.98 25.49 10.89 25.27 10.89C25.05 10.89 24.85 10.98 24.71 11.12L24.71 7.21C24.71 6.90 24.96 6.65 25.27 6.65C25.58 6.65 25.83 6.90 25.83 7.21ZM29.12 11.12C28.97 10.98 28.77 10.89 28.56 10.89C28.34 10.89 28.14 10.98 28 11.12L28 7.21C28 6.90 28.25 6.65 28.56 6.65C28.87 6.65 29.12 6.90 29.12 7.21ZM26.91 14C25.70 14 24.71 12.96 24.71 11.69C24.71 11.38 24.96 11.13 25.27 11.13C25.58 11.13 25.83 11.38 25.83 11.69C25.83 12.01 25.94 12.32 26.17 12.54C26.36 12.77 26.63 12.88 26.91 12.88C27.19 12.88 27.45 12.77 27.66 12.54C27.87 12.32 28 12.01 28 11.69C28 11.38 28.25 11.13 28.56 11.13C28.87 11.13 29.12 11.38 29.12 11.69C29.12 12.96 28.13 14 26.91 14ZM29.12 14.60C29.12 15.88 28.13 16.91 26.91 16.91C26.32 16.91 25.77 16.73 25.38 16.38C24.95 16.00 24.71 15.44 24.71 14.83C24.71 14.52 24.96 14.27 25.27 14.27C25.58 14.27 25.83 14.52 25.83 14.83C25.83 15.13 25.93 15.37 26.12 15.54C26.32 15.71 26.60 15.79 26.91 15.79C27.19 15.79 27.45 15.68 27.66 15.46C27.87 15.23 28 14.92 28 14.60L28 13.97C28.49 13.72 28.88 13.30 29.12 12.78ZM34.37 8.96C34.37 9.03 34.36 9.09 34.34 9.14C34.27 9.37 34.05 9.52 33.81 9.52C33.50 9.52 33.25 9.27 33.25 8.96C33.25 8.93 33.25 8.90 33.24 8.88C33.22 8.58 33.11 8.32 32.91 8.11C32.70 7.90 32.44 7.77 32.16 7.77C31.88 7.77 31.61 7.90 31.42 8.11C31.22 8.32 31.11 8.58 31.08 8.88L31.08 8.96C31.08 9.27 30.83 9.52 30.52 9.52C30.27 9.52 30.06 9.37 29.99 9.14C29.97 9.09 29.96 9.03 29.96 8.96L29.96 8.88C29.96 8.78 29.97 8.69 29.99 8.60C30.16 7.50 31.07 6.65 32.16 6.65C33.26 6.65 34.17 7.50 34.34 8.60C34.36 8.69 34.36 8.78 34.37 8.88ZM34.37 11.91C34.37 12.53 34.13 13.08 33.70 13.45C33.29 13.80 32.75 14 32.16 14C30.95 14 29.96 12.96 29.96 11.69L29.96 9.53C30.02 9.58 30.07 9.63 30.13 9.66C30.24 9.73 30.38 9.76 30.52 9.76C30.74 9.76 30.94 9.67 31.08 9.53C31.14 9.48 31.18 9.42 31.22 9.35C31.26 9.45 31.33 9.55 31.42 9.63C31.61 9.84 31.88 9.97 32.16 9.97C32.44 9.97 32.70 9.84 32.91 9.63C33.00 9.55 33.05 9.45 33.11 9.35C33.25 9.60 33.50 9.76 33.81 9.76C33.95 9.76 34.08 9.73 34.20 9.66C33.87 10.50 33.08 11.09 32.16 11.09C31.77 11.09 31.40 10.98 31.08 10.79L31.08 11.69C31.08 12.01 31.19 12.32 31.42 12.54C31.61 12.75 31.88 12.88 32.16 12.88C32.48 12.88 32.76 12.78 32.96 12.61C33.15 12.45 33.25 12.21 33.25 11.91C33.25 11.61 33.50 11.35 33.81 11.35C34.12 11.35 34.37 11.61 34.37 11.91Z"></path></g><!----><!----></svg>